<?xml version="1.0" standalone="no"?>
<!DOCTYPE svg PUBLIC "-//W3C//DTD SVG 20010904//EN"
 "http://www.w3.org/TR/2001/REC-SVG-20010904/DTD/svg10.dtd">
<svg version="1.0" xmlns="http://www.w3.org/2000/svg"
 width="300.000000pt" height="264.000000pt" viewBox="0 0 300.000000 264.000000"
 preserveAspectRatio="xMidYMid meet">
<metadata>
Created by potrace 1.10, written by Peter Selinger 2001-2011
</metadata>
<g transform="translate(0.000000,264.000000) scale(0.100000,-0.100000)"
fill="#000000" stroke="none">
<path d="M1357 2470 c-40 -47 -50 -122 -44 -310 4 -91 13 -232 22 -314 8 -82
19 -215 25 -295 5 -80 14 -217 20 -303 14 -191 8 -224 -45 -234 -51 -9 -94 20
-128 86 -27 53 -28 58 -22 165 l6 110 -31 -35 c-17 -19 -47 -63 -67 -97 -19
-35 -36 -63 -38 -63 -1 0 10 40 26 89 31 97 56 227 45 238 -17 17 -119 -125
-190 -266 -15 -29 -30 -51 -33 -48 -3 3 6 50 20 104 29 113 43 203 30 203 -16
0 -70 -96 -113 -203 -54 -132 -66 -123 -45 35 8 62 15 138 15 168 l-1 55 -30
-35 c-45 -53 -123 -212 -180 -367 -28 -76 -55 -145 -60 -153 -15 -27 -10 89
12 245 26 190 31 358 9 362 -24 4 -86 -83 -150 -211 -33 -66 -60 -116 -60
-113 0 4 7 51 15 105 35 238 68 567 69 692 1 113 -3 146 -21 206 -26 83 -61
138 -89 142 -29 4 -87 -63 -112 -131 -82 -218 -65 -476 59 -908 48 -169 50
-178 35 -207 -22 -42 -103 -283 -127 -375 -30 -120 -49 -291 -56 -525 -6 -191
-5 -212 10 -207 51 20 93 242 196 1040 l8 60 18 -63 c19 -65 25 -71 45 -48 9
12 6 33 -16 101 l-28 85 58 113 c32 61 72 134 89 160 26 41 32 46 40 32 11
-20 6 -75 -29 -354 -27 -218 -28 -230 -14 -251 20 -30 63 39 123 197 54 145
146 348 154 340 2 -2 -3 -55 -12 -118 -8 -63 -15 -140 -15 -172 0 -54 1 -57
19 -47 31 16 60 63 108 178 39 95 44 102 39 61 -3 -26 -17 -90 -32 -143 -15
-53 -24 -99 -21 -102 3 -3 17 2 31 13 24 18 33 31 137 211 77 134 78 80 3
-161 -19 -60 -34 -113 -34 -119 0 -25 43 31 96 123 31 55 58 99 60 99 2 0 1
-42 -3 -93 -7 -107 4 -151 48 -202 16 -18 42 -38 59 -45 25 -11 35 -9 69 7 52
26 55 16 25 -73 -13 -39 -28 -104 -35 -145 -15 -99 -6 -323 20 -469 12 -63 21
-134 21 -157 0 -24 4 -43 10 -43 24 0 32 55 41 263 5 122 13 283 19 357 5 74
9 146 10 160 0 24 7 28 84 48 108 28 141 28 170 -2 20 -19 25 -38 30 -102 4
-43 13 -127 20 -185 21 -163 46 -197 104 -140 38 39 55 90 87 266 28 157 164
729 172 722 4 -5 -37 -410 -57 -555 -5 -40 -10 -127 -10 -192 0 -130 5 -140
49 -99 30 28 44 63 76 189 38 150 107 355 145 430 18 36 53 97 79 135 l46 70
3 -48 c4 -55 -23 -197 -79 -417 -21 -86 -39 -161 -39 -168 0 -41 75 16 130 98
13 19 50 67 82 107 87 108 152 140 176 88 16 -36 15 -72 -8 -210 -28 -166 -28
-215 2 -273 38 -73 125 -114 162 -76 21 20 21 41 1 24 -31 -25 -100 47 -129
134 -18 52 -18 52 18 287 21 137 2 208 -52 194 -64 -16 -138 -88 -255 -247
-31 -42 -61 -80 -67 -83 -17 -10 -11 31 20 148 36 137 68 288 80 384 15 115
-2 131 -62 60 -60 -73 -125 -179 -167 -276 -40 -92 -121 -349 -142 -451 -38
-187 -36 62 5 455 14 138 30 296 36 352 10 91 26 172 46 228 7 20 6 20 -15 -1
-40 -37 -229 -712 -281 -1001 -36 -198 -50 -253 -66 -253 -32 0 -47 69 -73
333 -14 141 -47 160 -210 117 -101 -26 -113 -19 -109 63 l3 61 82 46 c105 58
146 98 177 175 38 95 72 313 47 303 -19 -7 -106 -118 -158 -203 -31 -49 -79
-137 -107 -195 -52 -106 -70 -114 -41 -18 9 29 34 139 55 243 22 105 51 244
66 310 43 199 36 457 -17 601 -22 58 -114 154 -148 154 -10 0 -31 -13 -44 -30z
m80 -72 c28 -29 59 -71 68 -93 46 -110 59 -399 26 -555 -10 -47 -35 -170 -55
-275 -21 -104 -41 -201 -44 -215 l-6 -25 -2 25 c-1 14 -8 111 -14 215 -7 105
-21 276 -31 380 -35 338 -37 595 -6 595 7 0 36 -24 64 -52z m-1114 -26 c56
-62 94 -223 83 -357 -12 -135 -37 -374 -52 -489 -8 -61 -14 -128 -14 -150 0
-21 -3 -36 -7 -32 -11 11 -81 274 -102 386 -29 151 -43 305 -36 375 15 137 66
285 99 285 7 0 20 -8 29 -18z m1381 -950 c-29 -164 -46 -188 -176 -260 -32
-18 -58 -29 -58 -25 0 14 134 252 188 333 66 99 72 93 46 -48z m-1417 -429
c-9 -59 -28 -193 -42 -298 -32 -240 -62 -424 -79 -495 l-14 -55 -1 85 c-3 211
33 509 79 665 17 55 37 126 47 158 9 31 18 55 21 52 2 -2 -3 -53 -11 -112z
m1104 -295 c-6 -91 -11 -210 -12 -265 -1 -165 -20 -72 -26 127 -4 136 -2 196
11 269 32 183 43 127 27 -131z"/>
<path d="M2207 1873 c-18 -5 -42 -51 -33 -61 3 -2 21 9 40 26 19 16 32 33 29
36 -7 6 -8 6 -36 -1z"/>
<path d="M1144 1752 c-16 -10 -28 -52 -15 -52 14 0 51 37 51 50 0 12 -20 13
-36 2z"/>
</g>
</svg>
