<svg xmlns="http://www.w3.org/2000/svg" width="400" height="400" preserveAspectRatio="xMidYMid meet" version="1.0" viewBox="0 0 300 300"><metadata>Created by potrace 1.10, written by Peter Selinger 2001-2011</metadata><g fill="#000" stroke="none"><path d="M1500 2328 c-11 -13 -24 -34 -28 -48 -12 -41 -6 -263 11 -450 31 -334 39 -484 29 -511 -14 -35 -43 -41 -82 -18 -47 29 -63 77 -54 168 l7 76 -22 -19 c-12 -11 -35 -42 -52 -70 -17 -28 -28 -44 -26 -35 39 124 47 157 47 187 l0 37 -29 -30 c-16 -17 -52 -70 -80 -120 -28 -49 -51 -86 -51 -83 0 4 9 44 20 90 11 46 20 94 20 108 l-1 25 -23 -28 c-13 -16 -38 -65 -57 -110 -29 -70 -34 -78 -37 -53 -2 16 1 65 7 109 6 44 11 89 11 100 0 63 -97 -106 -161 -280 -35 -97 -53 -119 -44 -55 32 223 43 386 26 396 -12 8 -59 -55 -109 -149 -36 -66 -42 -74 -38 -45 3 19 12 89 20 155 46 373 47 463 3 558 -33 73 -52 81 -89 36 -49 -58 -73 -156 -72 -289 2 -129 16 -214 70 -407 l37 -132 -51 -154 c-58 -172 -77 -280 -88 -508 -5 -107 -4 -148 5 -153 15 -10 37 43 57 137 19 89 71 455 80 559 7 83 18 93 29 28 7 -40 21 -52 31 -27 2 7 -4 40 -14 74 l-19 61 46 88 c100 192 107 185 71 -82 -29 -214 -26 -249 13 -209 8 8 40 79 71 157 31 79 66 159 77 178 l20 35 -6 -60 c-3 -33 -8 -88 -12 -122 -7 -73 3 -80 40 -30 21 28 31 49 68 146 21 53 17 9 -6 -79 -14 -51 -23 -95 -20 -98 11 -11 53 41 98 122 54 96 73 117 62 65 -8 -39 -50 -185 -60 -211 -4 -11 -3 -18 4 -18 6 0 31 36 57 80 25 44 47 80 47 80 1 0 1 -35 -1 -77 -3 -86 12 -126 63 -159 24 -16 29 -16 61 -1 40 19 41 16 14 -64 -27 -79 -36 -222 -21 -329 34 -236 36 -246 48 -225 10 18 33 376 33 512 l0 48 77 18 c68 15 79 15 99 2 25 -16 27 -23 43 -184 13 -120 30 -158 62 -140 29 15 54 78 73 184 22 120 118 528 126 538 4 4 1 -39 -6 -95 -47 -389 -55 -528 -29 -528 25 0 46 45 86 185 52 181 90 277 141 355 40 60 43 63 46 38 4 -33 -18 -148 -60 -311 -16 -65 -27 -121 -25 -124 12 -11 49 21 89 75 156 214 218 216 183 8 -29 -174 -19 -224 52 -263 35 -19 63 -12 71 18 3 11 2 12 -6 1 -14 -21 -75 38 -92 87 -11 35 -11 59 5 170 20 140 15 181 -23 181 -34 0 -105 -65 -172 -155 -38 -52 -66 -82 -68 -73 -2 9 6 52 18 97 52 204 71 333 51 346 -5 3 -25 -14 -44 -37 -84 -104 -136 -218 -192 -424 -19 -70 -38 -130 -41 -133 -19 -18 46 681 70 749 15 43 7 54 -12 18 -37 -72 -157 -524 -202 -760 -13 -65 -26 -118 -30 -118 -25 0 -37 44 -51 187 -5 58 -14 113 -19 123 -15 27 -54 32 -121 15 -81 -21 -99 -15 -99 36 0 34 4 42 31 57 135 75 168 120 193 266 9 49 13 92 11 95 -17 17 -119 -125 -190 -265 -44 -86 -55 -94 -35 -24 21 72 98 457 105 525 7 74 -6 208 -27 278 -12 40 -86 127 -107 127 -6 0 -20 -10 -31 -22z m52 -55 c49 -51 64 -91 77 -204 12 -107 3 -217 -29 -351 -10 -46 -26 -123 -35 -172 -8 -49 -17 -91 -19 -93 -2 -2 -6 59 -10 134 -4 76 -16 224 -26 328 -25 248 -26 395 -1 395 4 0 23 -17 43 -37z m-767 -68 c29 -58 30 -63 28 -190 -2 -71 -13 -213 -25 -314 l-23 -184 -28 99 c-65 238 -83 425 -52 544 18 73 40 113 58 108 7 -2 26 -31 42 -63z m960 -618 c-23 -120 -35 -140 -105 -181 -33 -20 -63 -36 -65 -36 -4 0 84 164 112 207 29 46 66 94 69 90 2 -2 -3 -38 -11 -80z m-1030 -438 c-48 -347 -72 -486 -81 -476 -5 5 24 392 32 427 16 70 67 240 71 237 2 -3 -8 -87 -22 -188z m811 59 c-3 -13 -8 -108 -12 -213 -6 -141 -10 -177 -15 -140 -17 120 -2 375 23 375 4 0 6 -10 4 -22z" transform="translate(0.000000,300.000000) scale(0.100000,-0.100000)"/><path d="M2081 1878 c-13 -33 -5 -35 25 -5 26 26 26 27 5 27 -13 0 -25 -9 -30 -22z" transform="translate(0.000000,300.000000) scale(0.100000,-0.100000)"/><path d="M1333 1805 c-3 -9 -3 -19 1 -22 7 -7 36 16 36 28 0 15 -30 10 -37 -6z" transform="translate(0.000000,300.000000) scale(0.100000,-0.100000)"/></g></svg>